<?xml version="1.0" encoding="utf-8"?>
<!-- Generator: Adobe Illustrator 23.0.0, SVG Export Plug-In . SVG Version: 6.00 Build 0)  -->
<svg version="1.1" id="Layer_1" xmlns="http://www.w3.org/2000/svg" xmlns:xlink="http://www.w3.org/1999/xlink" x="0px" y="0px"
	 viewBox="0 0 2000 1800" style="enable-background:new 0 0 2000 1800;" xml:space="preserve">
<style type="text/css">
	.st0{fill:#FF0000;}
	.st1{fill:#FFFFFF;}
</style>
<g>
	<g>
		<g>
			<path class="st0" d="M217.06,833.97l52.98,75.44h3.19l-0.76-75.44h31.42v101.25H250.3l-53.28-75.44h-3.34l0.76,75.44h-31.42
				V833.97H217.06z"/>
			<path class="st0" d="M423.95,918.07h-66.94l-8.65,17.15h-35.22l53.59-101.25h47.97l52.98,101.25H432.6L423.95,918.07z
				 M393.59,857.5h-6.07l-19.58,38.41h45.24L393.59,857.5z"/>
			<path class="st0" d="M576.35,833.97v25.81h-45.08v75.44h-32.33v-75.44h-45.09v-25.81H576.35z"/>
			<path class="st0" d="M617.94,833.97v101.25h-32.33V833.97H617.94z"/>
			<path class="st0" d="M761.23,839.44c7.74,5.92,10.02,16.09,10.02,45.08c0,29.15-2.28,39.16-10.02,45.24
				c-7.74,5.77-17.61,6.98-59.2,6.98c-42.2,0-52.07-1.21-59.81-6.98c-7.74-6.07-10.02-16.24-10.02-45.84
				c0-28.08,2.43-38.56,10.02-44.48c7.74-5.77,17.46-6.98,59.51-6.98C743.78,832.46,753.49,833.67,761.23,839.44z M665.75,864.64
				c-2.13,3.64-2.73,9.26-2.73,22.62c0,12.6,0.91,16.7,4.55,19.58c3.95,3.04,9.41,3.64,34.46,3.64c24.44,0,29.9-0.61,33.85-3.64
				c3.49-2.73,4.55-7.29,4.55-19.43c0-14.42-0.91-20.34-3.49-23.83c-3.19-4.4-6.83-4.86-35.22-4.86
				C671.98,858.72,668.79,859.17,665.75,864.64z"/>
			<path class="st0" d="M839.56,833.97l52.98,75.44h3.19l-0.76-75.44h31.42v101.25H872.8l-53.28-75.44h-3.34l0.76,75.44h-31.42
				V833.97H839.56z"/>
			<path class="st0" d="M964.94,833.97l27.17,75.75h5.62l22.92-75.75h37.19l23.07,75.75h5.77l27.32-75.75h32.64l-39.32,101.25
				h-47.51l-20.34-74.23l-20.04,74.23h-47.82l-38.1-101.25H964.94z"/>
			<path class="st0" d="M1186.25,833.97v101.25h-32.33V833.97H1186.25z"/>
			<path class="st0" d="M1202.64,833.97h73.02c25.81,0,29.3,0.15,37.95,1.97c10.02,1.97,16.7,7.74,19.73,17.15
				c2.28,7.13,2.88,13.66,2.88,30.06c0,26.41-2.28,36.74-9.72,43.57c-7.74,6.98-16.7,8.5-50.85,8.5h-73.02V833.97z M1275.96,909.42
				c27.93,0,29.9-1.52,29.9-24.44c0-12.45-1.06-18.06-4.1-21.4c-3.19-3.64-7.29-4.25-26.11-4.25H1233v50.09H1275.96z"/>
			<path class="st0" d="M1462.52,833.97v23.83h-81.67v14.72h77.57v22.31h-77.57v16.09h82.28v24.29h-112.64V833.97H1462.52z"/>
		</g>
		<path class="st1" d="M234.41,974.33v15.04h-26.28v43.98h-18.85v-43.98H163v-15.04H234.41z"/>
		<path class="st1" d="M340.5,974.33v13.89h-47.6v8.58h45.22v13.01H292.9v9.38h47.96v14.16H275.2v-59.02H340.5z"/>
		<path class="st1" d="M457.66,1010.6c0.09,3.36,0.18,4.69,0.18,5.57c0,9.29-2.39,13.63-8.49,15.84
			c-4.78,1.59-11.33,2.21-24.86,2.21c-22.48,0-29.91-0.71-34.78-3.19c-4.34-2.21-6.28-5.66-6.99-12.3
			c-0.18-2.65-0.35-7.7-0.35-14.51c0-13.54,0.44-18.49,1.86-21.86c3.36-7.43,10.09-8.94,40.35-8.94c15.13,0,20.79,0.53,24.78,2.48
			c5.4,2.57,7.34,6.9,7.34,16.64v2.92h-17.96c-0.18-3.45-0.35-4.25-1.06-5.22c-0.71-0.97-2.12-1.42-6.02-1.68
			c-2.83-0.18-8.14-0.35-12.21-0.35c-11.15,0-14.42,0.35-16.28,1.86c-2.12,1.68-2.83,5.22-2.83,14.07
			c0,15.04,0.27,15.31,19.29,15.31c19.64,0,19.91-0.09,20-8.85H457.66z"/>
		<path class="st1" d="M519.51,974.33v21.15h40.61v-21.15h18.85v59.02h-18.85v-21.33h-40.61v21.33h-18.85v-59.02H519.51z"/>
		<path class="st1" d="M655.43,974.33l30.88,43.98h1.86l-0.44-43.98h18.32v59.02h-31.24l-31.06-43.98h-1.95l0.44,43.98h-18.32
			v-59.02H655.43z"/>
		<path class="st1" d="M824.88,977.51c4.51,3.45,5.84,9.38,5.84,26.28c0,16.99-1.33,22.83-5.84,26.37
			c-4.51,3.36-10.26,4.07-34.51,4.07c-24.6,0-30.35-0.71-34.86-4.07c-4.51-3.54-5.84-9.47-5.84-26.72c0-16.37,1.42-22.48,5.84-25.93
			c4.51-3.36,10.18-4.07,34.69-4.07C814.71,973.44,820.37,974.15,824.88,977.51z M769.22,992.2c-1.24,2.12-1.59,5.4-1.59,13.18
			c0,7.34,0.53,9.73,2.65,11.41c2.3,1.77,5.49,2.12,20.09,2.12c14.25,0,17.43-0.35,19.73-2.12c2.03-1.59,2.65-4.25,2.65-11.33
			c0-8.41-0.53-11.86-2.03-13.89c-1.86-2.57-3.98-2.83-20.53-2.83C772.85,988.75,770.99,989.01,769.22,992.2z"/>
		<path class="st1" d="M893.28,974.33v43.98h41.94v15.04h-60.79v-59.02H893.28z"/>
		<path class="st1" d="M1051.06,977.51c4.51,3.45,5.84,9.38,5.84,26.28c0,16.99-1.33,22.83-5.84,26.37
			c-4.51,3.36-10.26,4.07-34.51,4.07c-24.6,0-30.35-0.71-34.86-4.07c-4.51-3.54-5.84-9.47-5.84-26.72c0-16.37,1.42-22.48,5.84-25.93
			c4.51-3.36,10.18-4.07,34.69-4.07C1040.88,973.44,1046.54,974.15,1051.06,977.51z M995.4,992.2c-1.24,2.12-1.59,5.4-1.59,13.18
			c0,7.34,0.53,9.73,2.65,11.41c2.3,1.77,5.49,2.12,20.09,2.12c14.25,0,17.43-0.35,19.73-2.12c2.03-1.59,2.65-4.25,2.65-11.33
			c0-8.41-0.53-11.86-2.03-13.89c-1.86-2.57-3.98-2.83-20.53-2.83C999.03,988.75,997.17,989.01,995.4,992.2z"/>
		<path class="st1" d="M1177.5,999.9v1.59c0,5.66-0.35,15.93-0.62,18.76c-0.71,6.9-4.51,10.97-11.59,12.39
			c-6.11,1.24-12.39,1.59-28.32,1.59c-20.18,0-26.55-0.8-31.5-4.16c-5.22-3.45-6.19-7.79-6.19-27.17c0-15.93,1.5-21.86,6.46-25.31
			c4.25-3.01,13.8-4.16,34.42-4.16c21.86,0,30.08,1.5,33.98,6.11c2.48,2.92,3.18,6.55,3.27,15.22h-17.96
			c-0.09-3.36-0.27-4.16-1.42-4.96c-1.77-1.24-6.02-1.59-19.47-1.59c-21.24,0-21.33,0.09-21.33,15.4c0,9.82,0.53,13.1,2.57,14.6
			c1.42,1.15,2.92,1.5,7.7,1.68l10.97,0.18c15.31,0,18.58-0.27,20.26-1.77c0.97-0.97,1.24-2.03,1.24-6.64h-23.63V999.9H1177.5z"/>
		<path class="st1" d="M1240.15,974.33v59.02h-18.85v-59.02H1240.15z"/>
		<path class="st1" d="M1350.41,974.33v13.89h-47.61v8.58h45.22v13.01h-45.22v9.38h47.96v14.16h-65.66v-59.02H1350.41z"/>
		<path class="st1" d="M1408.37,1013.79c0,3.54,0.35,4.69,1.77,5.57c1.68,1.06,3.63,1.24,16.28,1.24c13.63,0,15.66-0.09,17.34-0.8
			c1.33-0.62,1.95-1.95,1.95-4.42c0-3.54-1.42-4.42-7.17-4.51c-1.95,0-7.79-0.27-14.07-0.53c-6.46-0.35-12.48-0.62-14.33-0.62
			c-8.58-0.27-12.74-1.5-15.4-4.51c-2.21-2.65-3.27-6.46-3.27-12.39c0-8.76,2.03-14.07,6.19-16.37c4.6-2.48,9.73-3.01,31.06-3.01
			c16.46,0,22.65,0.8,26.9,3.27c3.81,2.39,5.4,6.19,5.4,13.45c0,0.35,0,1.59-0.09,2.74h-17.34c-0.09-2.92-0.35-3.72-1.33-4.6
			c-1.42-1.15-3.45-1.33-16.99-1.33c-15.13,0-16.37,0.35-16.37,4.69c0,2.12,0.8,3.27,2.48,3.8c1.59,0.44,6.19,0.71,19.11,1.06
			c19.02,0.53,23.01,1.06,26.72,3.27c4.34,2.57,5.93,6.55,5.93,15.04c0,10-2.3,15.04-8.05,17.34c-3.63,1.5-10.88,2.03-29.11,2.03
			c-17.61,0-24.95-0.8-29.2-3.19c-4.42-2.48-5.84-6.02-5.84-14.42v-2.83H1408.37z"/>
	</g>
	<g>
		<path class="st1" d="M1763.81,1040.01h-30.37c0.82-7.66,7.31-13.63,15.19-13.63C1756.5,1026.38,1762.99,1032.35,1763.81,1040.01z"
			/>
		<path class="st1" d="M1800.36,1040.01h-23.19c-0.86-15.01-13.34-26.95-28.54-26.95s-27.68,11.94-28.54,26.95h-23.19
			c0.86-27.79,23.74-50.13,51.73-50.13S1799.5,1012.23,1800.36,1040.01z"/>
		<path class="st1" d="M1802.25,1007.3c0,0-30.34-65.08-96.76-31.11c0,0-16.79,8.97-27.96,27h-206.27c0.62,1.98,0.99,4.04,1.2,6.1
			h196.68v5.59h-196.42c0,1.59-0.01,3.92-0.32,6.57h184.89v5.59h-186.04c-0.46,1.51-1.05,3.02-1.83,4.49l-0.11,1.71h214.81
			c0,0,10.11-43.71,51.71-50.58c0,0,34.97-7.33,61.36,23.62c8.85,10.38,13.44,25.38,15.44,33.73h24.35v-14.77
			C1836.99,1025.24,1838.52,1005.57,1802.25,1007.3z"/>
		<g>
			<g>
				<polyline class="st0" points="1486.97,997.08 1486.97,832.13 1499.52,825.26 1499.52,777.93 1525.48,759.99 1525.48,823.73 
					1538.08,831.75 1541.04,970.41 1568.88,997.08 				"/>
				<path class="st0" d="M1788.39,935.53c-3.54-16.79-18.36-28.81-35.52-28.81h-81.61c0,0-17.11-36.84-38.29-53.44
					c0,0,4.29-5.15,16.7-5.53c0,0,13.07-0.86-19.66-7.16c0,0-27.48-9.16-86.17-7.73l10.69,19.47h14.32c0.6,0.25,1.21,0.5,1.8,0.76
					c29.34,13.19,45.01,41.43,50.13,52.28c0.14,0.31,0.28,0.6,0.4,0.88l-42.37-0.51c-7.85-0.09-14.96-4.66-18.31-11.76l-14.66-31.05
					l4.06,103.97l30.29,30.29h79.59v-13.17l-71.29-7.73l72.53-0.29v-68.42v-0.86l-27.63-0.33c-0.21-0.42-0.42-0.84-0.63-1.25
					c-15.34-29.78-31.79-45-45.94-52.56c-0.17-0.09-0.33-0.17-0.5-0.25h5.43c0,0,36.64-4.96,69.28,54.39l7.92,22.62l101.06,7.16
					l-99.34,4.87l1.29,58.97c17.03-34.93,41.08-40.08,41.08-40.08c56.4-19.75,87.03,30.63,87.03,30.63L1788.39,935.53z"/>
			</g>
			<polyline class="st0" points="1495.4,799.28 1040.08,801.91 1394.85,804.25 1156.3,807.48 1422.65,809.23 1211.35,812.45 
				1433.78,815.09 1286.97,817.43 1495.4,817.43 			"/>
		</g>
	</g>
</g>
</svg>
